<svg width="56" height="56" viewBox="0 0 56 56" fill="none" xmlns="http://www.w3.org/2000/svg">
<g clip-path="url(#clip0)">
<rect width="56" height="56" rx="8" fill="#40C9A2"/>
<path d="M66.4947 35.969C62.9393 33.4621 58.6325 32.2487 54.2913 32.5308C49.9501 32.8129 45.8366 34.5736 42.6355 37.5196C39.4345 40.4655 37.3391 44.4191 36.6984 48.722C36.0576 53.0249 36.91 57.4174 39.1138 61.1683L46.873 56.6095C45.7111 54.632 45.2617 52.3161 45.5995 50.0475C45.9374 47.779 47.0421 45.6946 48.7297 44.1414C50.4174 42.5882 52.5861 41.6599 54.8749 41.5112C57.1637 41.3625 59.4343 42.0022 61.3088 43.3239L66.4947 35.969Z" fill="#3CB491"/>
<circle cx="9" cy="10" r="4" fill="#FFBA49"/>
</g>
<defs>
<clipPath id="clip0">
<rect width="56" height="56" rx="8" fill="white"/>
</clipPath>
</defs>
</svg>
