<svg width="23" height="23" viewBox="0 0 23 23" fill="none" xmlns="http://www.w3.org/2000/svg">
<path d="M11.4905 1.91663C6.2005 1.91663 1.91675 6.20996 1.91675 11.5C1.91675 16.79 6.2005 21.0833 11.4905 21.0833C16.7901 21.0833 21.0834 16.79 21.0834 11.5C21.0834 6.20996 16.7901 1.91663 11.4905 1.91663ZM11.5001 19.1666C7.26425 19.1666 3.83341 15.7358 3.83341 11.5C3.83341 7.26413 7.26425 3.83329 11.5001 3.83329C15.7359 3.83329 19.1667 7.26413 19.1667 11.5C19.1667 15.7358 15.7359 19.1666 11.5001 19.1666Z" fill="#FF4949"/>
<path d="M11.9792 6.70837H10.5417V12.4584L15.573 15.4771L16.2917 14.2984L11.9792 11.7396V6.70837Z" fill="#FF4949"/>
</svg>
