<svg xmlns="http://www.w3.org/2000/svg" width="411" height="823" fill="none" viewBox="0 0 411 823">
    <path stroke="#000" stroke-dasharray="8 8" stroke-width="8" d="M-85.95 235.811c123.97 55.38 189.417-25.219 310.11-13.655 220.715 21.149 231.108 362.777 533.023 196.11L94.201-345-261.223-36.274C-310.793 6.782-209.92 180.432-85.95 235.81z" opacity=".1"/>
    <path fill="#ABB6B5" d="M290.378 1034.64c-5.184 21.74 8.498 43.83 30.809 45.2 49.644 3.03 99.445-8.19 142.887-32.69 55.228-31.16 96.007-81.435 114.002-140.56 17.994-59.125 11.845-122.632-17.19-177.54-29.036-54.907-78.766-97.068-139.024-117.865-60.258-20.797-126.494-18.659-185.169 5.976-58.675 24.636-105.358 69.909-130.506 126.565-25.148 56.656-26.862 120.417-4.792 178.249 17.537 45.955 49.041 85.405 89.979 113.485 17.825 12.23 41.462 4.16 51.416-15.03l19.144-36.896c10.395-20.035 1.472-44.356-14.633-60.171-12.359-12.136-22.035-26.75-28.23-42.983-11.051-28.959-10.193-60.887 2.4-89.258 12.593-28.37 35.969-51.04 65.35-63.377 29.382-12.336 62.549-13.406 92.723-2.992 30.175 10.414 55.076 31.526 69.616 59.021 14.539 27.494 17.619 59.295 8.608 88.902-9.011 29.606-29.431 54.783-57.086 70.383-16.214 9.147-34.197 14.596-52.598 16.15-21.754 1.836-43.163 14.426-48.226 35.662l-9.48 39.769z" opacity=".2"/>
    <circle cx="345" cy="83" r="12" fill="#FFBA49"/>
    <circle cx="89" cy="620" r="18" fill="#FFBA49"/>
    <circle cx="349.5" cy="742.5" r="11.5" fill="#FFBA49"/>
    <path fill="#ABB6B5" d="M71.894 94.59C23.24 121.871-38.318 104.546-65.601 55.893-92.883 7.24-75.559-54.318-26.905-81.601c48.653-27.282 110.212-9.958 137.494 38.696 27.283 48.653 9.958 110.212-38.695 137.494zM-4.198-41.107c-26.288 14.742-35.65 48.003-20.908 74.292 14.742 26.289 48.003 35.65 74.292 20.908 26.289-14.741 35.65-48.003 20.908-74.292-14.741-26.288-48.003-35.65-74.292-20.908z" opacity=".2"/>
</svg>
