<svg xmlns="http://www.w3.org/2000/svg" width="411" height="823" fill="none" viewBox="0 0 411 823">
    <path fill="#1E524E" d="M-8.471 336.852c-.6-22.345-19.516-40.162-41.424-35.725-48.747 9.873-93.971 33.555-129.623 68.436-45.324 44.344-71.756 103.439-73.892 165.204-2.137 61.766 20.184 121.538 62.398 167.099 42.215 45.561 101.136 73.47 164.72 78.022 63.583 4.552 127.027-14.597 177.363-53.532 50.336-38.936 83.763-94.717 93.447-155.942 9.685-61.226-5.103-123.271-41.342-173.455-28.797-39.877-69.411-69.871-116.206-86.44-20.375-7.214-41.13 6.679-45.8 27.783l-8.98 40.586c-4.875 22.038 10.019 43.235 29.657 54.361 15.071 8.538 28.189 20.162 38.361 34.249 18.147 25.129 25.552 56.198 20.702 86.856-4.849 30.659-21.588 58.591-46.793 78.088-25.206 19.497-56.975 29.085-88.814 26.806-31.84-2.279-61.344-16.255-82.483-39.069-21.139-22.815-32.316-52.745-31.246-83.674 1.07-30.929 14.306-60.521 37.002-82.726 13.306-13.019 29.275-22.922 46.653-29.169 20.544-7.384 37.982-25.071 37.396-46.894l-1.096-40.864zM521 181c0 55.781-45.219 101-101 101s-101-45.219-101-101S364.219 80 420 80s101 45.219 101 101zm-155.573 0c0 30.14 24.433 54.573 54.573 54.573S474.573 211.14 474.573 181 450.14 126.427 420 126.427 365.427 150.86 365.427 181z" opacity=".2"/>
    <path stroke="#000" stroke-dasharray="5 4" stroke-width="8" d="M20.882 474.897c105.39-85.605 63.028-180.394 127.845-282.861C267.259 4.653 576.77 149.64 564.39-195L-416 51.895l114.97 456.531c16.034 63.67 216.521 52.077 321.912-33.529zM642.528 594.673c-135.549 7.874-156.569 109.549-269.047 154.816C167.788 832.272 1.365 533.74-190 820.637l939.834 372.603 173.507-437.646c24.198-61.037-145.264-168.796-280.813-160.921z" opacity=".1"/>
    <path fill="#1E524E" d="M429.478 726.13c9.077-5.134 20.862-1.94 23.595 8.124 1.936 7.133 2.826 14.545 2.61 22.001-.397 13.785-4.556 27.199-12.027 38.792-7.47 11.592-17.967 20.922-30.356 26.98-12.389 6.057-26.199 8.613-39.935 7.39-13.737-1.223-26.878-6.178-38.002-14.329-11.124-8.151-19.808-19.189-25.113-31.918-5.305-12.73-7.028-26.668-4.985-40.307 1.106-7.377 3.29-14.514 6.457-21.193 4.467-9.423 16.631-10.485 24.658-3.828 8.028 6.656 8.532 18.703 6.524 28.936-.11.557-.207 1.118-.291 1.682-1.023 6.829-.16 13.808 2.496 20.183 2.657 6.374 7.005 11.901 12.575 15.983 5.571 4.082 12.151 6.563 19.03 7.175 6.878.613 13.793-.667 19.997-3.701 6.204-3.033 11.46-7.705 15.201-13.51 3.741-5.805 5.823-12.522 6.022-19.425.017-.569.02-1.138.011-1.706-.169-10.427 2.456-22.195 11.533-27.329z" opacity=".2"/>
    <circle cx="62.5" cy="76.5" r="17.5" fill="#FFBA49"/>
    <circle cx="147.5" cy="765.5" r="11.5" fill="#FFBA49"/>
    <circle cx="331" cy="142" r="12" fill="#FFBA49"/>
    <circle cx="224" cy="447" r="9" fill="#FFBA49"/>
    <circle cx="371" cy="611" r="18" fill="#FFBA49"/>
    <path fill="#2E4057" d="M326.7 298.546c-7.902 6.267-13.419 15.051-15.632 24.89-2.213 9.84-.989 20.14 3.468 29.187s11.879 16.294 21.029 20.535c9.15 4.24 19.477 5.219 29.261 2.772l-5.061-20.239c-5.159 1.29-10.603.774-15.427-1.462-4.825-2.236-8.738-6.057-11.087-10.826-2.35-4.77-2.996-10.201-1.829-15.388 1.167-5.188 4.076-9.819 8.242-13.123L326.7 298.546zM86.845 158.298c7.639-5.441 16.921-8.079 26.28-7.469 9.359.609 18.22 4.429 25.089 10.815l-13.113 14.105c-3.622-3.367-8.294-5.381-13.228-5.702-4.934-.322-9.828 1.069-13.855 3.938l-11.173-15.687zM137.236 797.034c-8.934-11.435-21.166-19.737-34.66-23.525-13.493-3.788-27.434-2.833-39.5 2.707-12.067 5.54-21.532 15.329-26.819 27.739-5.287 12.409-6.076 26.69-2.238 40.464l27.253-5.569c-2.024-7.262-1.607-14.791 1.18-21.334 2.787-6.542 7.777-11.704 14.14-14.624 6.361-2.921 13.71-3.425 20.825-1.428 7.114 1.997 13.563 6.375 18.273 12.404l21.546-16.834z"/>
    <path fill="#40C9A2" d="M181.704 550.167c-2.109-.685-4.355-.84-6.538-.45-2.183.39-4.236 1.312-5.978 2.685s-3.118 3.155-4.007 5.186c-.888 2.032-1.262 4.252-1.088 6.463.174 2.211.89 4.345 2.086 6.212 1.196 1.868 2.834 3.412 4.768 4.496 1.935 1.083 4.108 1.673 6.325 1.717 2.217.043 4.411-.461 6.387-1.468l-4.061-7.969c-.665.339-1.404.508-2.15.494-.747-.015-1.478-.213-2.13-.578-.652-.365-1.203-.885-1.606-1.514-.402-.629-.644-1.348-.702-2.092-.059-.744.067-1.492.366-2.176.3-.684.763-1.284 1.35-1.746.586-.463 1.277-.773 2.012-.904.736-.132 1.492-.08 2.202.151l2.764-8.507zM179.945 269.423c-1.261 2.371-1.918 5.018-1.912 7.704.006 2.686.674 5.329 1.945 7.696 1.272 2.366 3.107 4.382 5.344 5.87 2.237 1.487 4.806 2.4 7.48 2.658 2.674.257 5.37-.149 7.849-1.182 2.48-1.034 4.666-2.663 6.366-4.743 1.699-2.08 2.86-4.547 3.378-7.183.518-2.636.379-5.359-.407-7.927l-10.361 3.167c.265.865.312 1.782.137 2.67-.174.887-.565 1.718-1.137 2.418-.572.701-1.309 1.249-2.144 1.597-.835.348-1.742.485-2.643.398-.9-.086-1.765-.394-2.518-.895-.754-.501-1.372-1.18-1.8-1.976-.428-.797-.653-1.687-.655-2.592-.002-.904.219-1.795.644-2.594l-9.566-5.086zM85.329 505.823c1.698.792 3.566 1.153 5.437 1.051 1.871-.102 3.689-.664 5.29-1.636 1.603-.973 2.94-2.325 3.895-3.938.955-1.612 1.497-3.436 1.579-5.308.082-1.872-.299-3.736-1.11-5.426-.81-1.69-2.025-3.153-3.537-4.262-1.51-1.108-3.272-1.826-5.128-2.091-1.855-.265-3.747-.068-5.508.573l2.585 7.103c.593-.216 1.23-.282 1.855-.193.625.089 1.218.331 1.727.704.509.373.918.866 1.19 1.435.274.569.402 1.197.374 1.827-.027.631-.21 1.245-.531 1.788-.322.543-.772.998-1.312 1.326-.539.327-1.15.516-1.781.551-.63.034-1.26-.088-1.831-.354l-3.194 6.85zM289.952 609.14c3.1 1.937 6.629 3.079 10.275 3.326 3.646.247 7.297-.409 10.629-1.91s6.242-3.801 8.474-6.695c2.231-2.894 3.713-6.295 4.317-9.899.603-3.604.308-7.302-.859-10.765-1.168-3.463-3.171-6.585-5.833-9.089-2.662-2.504-5.9-4.313-9.428-5.267-3.528-.953-7.236-1.022-10.797-.2l3.315 14.362c1.199-.277 2.448-.254 3.636.068 1.188.321 2.279.93 3.175 1.773.896.843 1.571 1.894 1.964 3.06.393 1.167.492 2.412.289 3.625-.203 1.214-.702 2.359-1.454 3.334-.751.974-1.731 1.749-2.853 2.254-1.122.505-2.351.726-3.579.643-1.228-.083-2.416-.468-3.46-1.12l-7.811 12.5z"/>
    <path fill="#2E4057" d="M423.98 676.304c-6.395 1.213-12.181 4.579-16.396 9.538-4.215 4.96-6.604 11.213-6.769 17.72-.165 6.506 1.904 12.873 5.861 18.04 3.958 5.167 9.566 8.822 15.891 10.357l3.176-13.084c-3.335-.809-6.292-2.737-8.378-5.461-2.087-2.724-3.177-6.08-3.09-9.511.087-3.43 1.346-6.727 3.568-9.342s5.273-4.389 8.645-5.028l-2.508-13.229z"/>
</svg>
