<svg xmlns="http://www.w3.org/2000/svg" width="100%" height="240" fill="none" viewBox="0 0 380 215">
    <path fill="#40C9A2" d="M265.796 115.558c-1.221-.397-2.522-.486-3.786-.261-1.264.226-2.453.76-3.462 1.555-1.009.795-1.806 1.827-2.32 3.004-.515 1.177-.732 2.462-.631 3.742.101 1.281.516 2.517 1.208 3.598.693 1.082 1.641 1.976 2.762 2.604 1.121.627 2.379.969 3.663.994 1.284.025 2.554-.266 3.699-.85l-2.352-4.615c-.385.196-.813.294-1.246.286-.432-.008-.856-.123-1.233-.335-.377-.211-.697-.512-.93-.876-.233-.365-.373-.781-.407-1.212-.034-.431.039-.864.213-1.26.173-.396.441-.744.781-1.012.34-.267.74-.447 1.166-.523.425-.076.863-.046 1.275.088l1.6-4.927zM264.778-3.235c-.731 1.374-1.111 2.906-1.108 4.462.004 1.555.391 3.086 1.127 4.457.736 1.37 1.799 2.538 3.095 3.4 1.295.86 2.783 1.39 4.332 1.539 1.548.149 3.11-.086 4.546-.685 1.436-.598 2.702-1.542 3.686-2.746.984-1.205 1.656-2.634 1.957-4.16.3-1.527.219-3.104-.236-4.592l-6 1.835c.153.5.18 1.032.079 1.546-.101.514-.327.995-.659 1.4-.331.406-.758.724-1.241.925-.484.202-1.01.281-1.531.23-.521-.05-1.022-.227-1.459-.517-.436-.29-.794-.684-1.042-1.145-.248-.462-.378-.977-.379-1.5-.001-.525.127-1.04.373-1.503l-5.54-2.946zM209.982 133.674c.983.459 2.065.668 3.149.609 1.083-.06 2.136-.385 3.064-.948.928-.563 1.702-1.347 2.255-2.28.553-.934.867-1.99.915-3.075.047-1.084-.174-2.163-.643-3.142-.47-.979-1.173-1.826-2.048-2.468-.876-.642-1.896-1.058-2.97-1.211-1.075-.154-2.17-.04-3.19.331l1.497 4.114c.343-.125.712-.163 1.074-.112.362.052.705.192 1 .408.295.216.532.502.69.831.158.33.232.693.216 1.058-.016.365-.121.721-.308 1.035-.186.315-.447.579-.759.768-.313.19-.667.3-1.032.319-.365.02-.729-.05-1.06-.204l-1.85 3.967zM328.487 193.509c1.795 1.121 3.839 1.783 5.951 1.926 2.111.143 4.226-.237 6.155-1.106 1.93-.87 3.616-2.201 4.908-3.878 1.292-1.676 2.151-3.645 2.5-5.733.349-2.087.178-4.228-.498-6.234-.676-2.006-1.836-3.814-3.377-5.264-1.542-1.45-3.417-2.498-5.46-3.05-2.044-.552-4.191-.592-6.254-.116l1.921 8.318c.694-.161 1.417-.147 2.105.039s1.32.538 1.839 1.027c.519.488.91 1.097 1.137 1.772.228.676.285 1.397.168 2.1-.118.702-.407 1.366-.842 1.93-.435.564-1.003 1.013-1.653 1.306-.649.292-1.361.42-2.072.372-.711-.048-1.4-.271-2.004-.649l-4.524 7.24z"/>
    <path fill="#1E524E" d="M82.07-3.273c13.425-7.767 18.215-25.284 7.372-36.374-13.233-13.535-29.78-23.625-48.206-29.136-27.478-8.218-57.058-5.632-82.692 7.232C-67.091-48.688-86.844-26.52-96.68.422c-9.834 26.942-9.008 56.623 2.31 82.976 11.32 26.353 32.277 47.387 58.587 58.804 26.31 11.417 55.988 12.354 82.967 2.619 26.978-9.735 49.22-29.406 62.178-54.992 8.689-17.157 12.764-36.105 12.06-55.021-.578-15.5-16.58-24.086-31.456-19.697C75.09 19.5 67.334 35.668 64.076 50.83c-1.007 4.692-2.617 9.271-4.82 13.621-6.49 12.812-17.627 22.663-31.136 27.537-13.51 4.875-28.37 4.406-41.545-1.311s-23.67-16.25-29.337-29.446c-5.668-13.196-6.082-28.059-1.157-41.55C-38.994 6.19-29.103-4.91-16.266-11.351c12.836-6.441 27.648-7.737 41.408-3.621 4.671 1.397 9.101 3.382 13.197 5.88 13.24 8.079 30.306 13.586 43.73 5.819z" opacity=".2"/>
    <path stroke="#000" stroke-dasharray="5 4" stroke-width="2" d="M52.245 220.897c57.351-26.694 48.997-74.355 89.938-113.287C217.051 36.414 340.383 137.167 374-20H-97v219.411c0 30.601 91.893 48.18 149.245 21.486z" opacity=".1"/>
    <path fill="#2E4057" d="M55.622-10.778c-3.075-3.936-7.406-6.7-12.27-7.832-4.866-1.131-9.971-.562-14.468 1.613s-8.112 5.824-10.246 10.34C16.505-2.14 15.983 2.97 17.16 7.825L27.202 5.39c-.62-2.56-.345-5.254.78-7.635 1.124-2.381 3.03-4.305 5.401-5.452 2.37-1.146 5.063-1.446 7.627-.85 2.565.597 4.849 2.054 6.47 4.13l8.142-6.362zM137.737 27.07c3.084-2.198 6.833-3.263 10.612-3.017s7.358 1.789 10.132 4.367l-5.296 5.696c-1.462-1.36-3.349-2.173-5.341-2.302-1.993-.13-3.969.431-5.595 1.59l-4.512-6.335zM267.071 25.44c-3.279.579-6.261 2.263-8.45 4.772-2.189 2.51-3.452 5.693-3.579 9.02-.127 3.328.889 6.599 2.88 9.268 1.991 2.67 4.836 4.576 8.062 5.403l1.71-6.673c-1.701-.436-3.201-1.44-4.25-2.848-1.05-1.407-1.586-3.132-1.519-4.886.067-1.754.733-3.433 1.887-4.756 1.154-1.323 2.727-2.21 4.455-2.516l-1.196-6.783zM-6.393 142.37c4.938.172 9.786-1.352 13.737-4.319 3.951-2.967 6.767-7.198 7.978-11.989 1.211-4.79.745-9.851-1.321-14.339-2.066-4.489-5.608-8.134-10.034-10.329l-4.542 9.157c2.334 1.157 4.201 3.079 5.29 5.446 1.09 2.366 1.336 5.034.697 7.56-.638 2.525-2.123 4.756-4.206 6.32-2.083 1.565-4.639 2.368-7.242 2.277l-.357 10.216zM102.382 131.369c3.943 1.839 8.396 2.271 12.619 1.226 4.223-1.046 7.96-3.506 10.59-6.972 2.629-3.466 3.992-7.727 3.862-12.076-.13-4.348-1.746-8.521-4.579-11.823l-6.83 5.86c1.493 1.74 2.345 3.94 2.414 6.233.069 2.292-.65 4.539-2.036 6.367-1.387 1.827-3.357 3.124-5.584 3.675-2.226.551-4.574.323-6.653-.646l-3.803 8.156zM269.259 145.297c-2.229-3.86-5.713-6.841-9.872-8.445s-8.742-1.736-12.986-.372c-4.244 1.363-7.893 4.14-10.34 7.866-2.446 3.727-3.542 8.179-3.105 12.615l9.177-.904c-.23-2.338.348-4.686 1.637-6.65 1.29-1.965 3.214-3.429 5.451-4.148 2.238-.719 4.654-.649 6.847.197 2.193.845 4.03 2.417 5.205 4.452l7.986-4.611zM-8.132 267.409c3.65-.128 7.146-1.502 9.906-3.893 2.76-2.391 4.618-5.656 5.264-9.251.646-3.594.041-7.302-1.713-10.505-1.755-3.203-4.554-5.708-7.931-7.098l-2.876 6.986c1.78.733 3.256 2.054 4.18 3.742.926 1.689 1.245 3.644.904 5.539-.34 1.895-1.32 3.616-2.775 4.877-1.455 1.261-3.299 1.985-5.223 2.052l.264 7.551zM175.196 267.937c4.643-1.69 8.567-4.919 11.119-9.15 2.551-4.231 3.577-9.209 2.905-14.104-.671-4.896-2.999-9.413-6.596-12.801-3.597-3.387-8.246-5.441-13.173-5.818l-.78 10.192c2.597.199 5.048 1.281 6.945 3.067 1.896 1.786 3.124 4.168 3.478 6.749.354 2.581-.187 5.205-1.532 7.436-1.346 2.231-3.414 3.933-5.862 4.824l3.496 9.605zM328.393 243.246c0-3.277-1.122-6.454-3.18-9.003-2.058-2.55-4.926-4.318-8.129-5.009-3.202-.692-6.545-.266-9.471 1.207-2.927 1.473-5.26 3.904-6.612 6.888l6.173 2.797c.713-1.573 1.943-2.855 3.486-3.631 1.543-.777 3.305-1.001 4.993-.637 1.689.365 3.201 1.297 4.286 2.641 1.085 1.344 1.676 3.019 1.676 4.747h6.778z"/>
    <circle cx="379.19" cy="78.19" r="8.19" fill="#FFBA49" opacity=".96"/>
    <circle cx="55.49" cy="111.49" r="7.49" fill="#FFBA49"/>
    <circle cx="184.49" cy="1.49" r="7.49" fill="#FFBA49"/>
    <circle cx="293.49" cy="77.49" r="7.49" fill="#FFBA49"/>
    <circle cx="151.34" cy="239.34" r="4.34" fill="#FFBA49" opacity=".9"/>
    <circle cx="240.49" cy="216.49" r="7.49" fill="#FFBA49"/>
    <circle cx="101" cy="203" r="7" fill="#FFBA49"/>
    <circle cx="149" cy="163" r="7" fill="#FFBA49"/>
    <path fill="#1E524E" d="M230.373 146.853c-5.158-3.233-6.794-10.171-2.387-14.371 3.124-2.977 6.682-5.493 10.569-7.455 7.188-3.627 15.23-5.22 23.258-4.607 8.028.613 15.735 3.409 22.288 8.085 6.554 4.677 11.704 11.056 14.894 18.448 3.19 7.392 4.299 15.515 3.206 23.492-1.093 7.976-4.346 15.502-9.406 21.763-5.061 6.262-11.737 11.021-19.307 13.762-4.094 1.483-8.366 2.346-12.675 2.576-6.079.326-10.005-5.623-8.819-11.595 1.186-5.971 7.23-9.578 13.042-11.391.317-.099.632-.205.944-.319 3.791-1.372 7.134-3.755 9.668-6.891 2.534-3.135 4.163-6.904 4.71-10.898.548-3.994-.008-8.062-1.605-11.763-1.597-3.702-4.176-6.896-7.458-9.238-3.282-2.342-7.141-3.742-11.161-4.049-4.02-.307-8.047.491-11.646 2.307-.297.15-.59.306-.879.469-5.306 2.985-12.077 4.908-17.236 1.675zM441 68.5c0 30.1-24.4 54.5-54.5 54.5S332 98.6 332 68.5 356.4 14 386.5 14 441 38.4 441 68.5zm-83.948 0c0 16.264 13.184 29.448 29.448 29.448 16.264 0 29.448-13.184 29.448-29.448 0-16.264-13.184-29.448-29.448-29.448-16.264 0-29.448 13.184-29.448 29.448z" opacity=".2"/>
</svg>
