<svg xmlns="http://www.w3.org/2000/svg" width="100%" height="100%" fill="none" viewBox="0 0 168 234">
    <path fill="#40C9A2" d="M57.37 227.427c.66-1.145 1.03-2.435 1.073-3.756.043-1.322-.24-2.634-.825-3.819-.585-1.186-1.453-2.209-2.528-2.979-1.074-.77-2.322-1.264-3.633-1.436-1.31-.173-2.644-.019-3.881.446-1.238.466-2.341 1.23-3.213 2.224-.872.994-1.485 2.187-1.785 3.475-.3 1.287-.278 2.629.064 3.906l5.15-1.38c-.115-.43-.122-.882-.02-1.315.1-.434.307-.836.6-1.17.294-.335.665-.592 1.082-.749.417-.157.865-.209 1.307-.15.441.058.861.224 1.223.483.362.259.654.604.851 1.003.197.399.293.841.278 1.286-.014.445-.139.88-.361 1.265l4.618 2.666z"/>
    <circle cx="145" cy="214" r="5" fill="#FFBA49"/>
    <path fill="#2E4057" d="M150.977 189.431c3.191-3.773 4.993-8.525 5.106-13.465.114-4.94-1.468-9.769-4.482-13.685-3.014-3.915-7.278-6.68-12.083-7.834-4.804-1.154-9.859-.627-14.322 1.492l4.384 9.233c2.353-1.117 5.018-1.395 7.551-.786 2.533.608 4.781 2.066 6.37 4.13 1.59 2.064 2.424 4.611 2.364 7.215-.06 2.605-1.01 5.11-2.693 7.099l7.805 6.601z"/>
    <path fill="#1E524E" d="M104 199.5c0 30.1-24.4 54.5-54.5 54.5S-5 229.6-5 199.5 19.4 145 49.5 145s54.5 24.4 54.5 54.5zm-83.948 0c0 16.264 13.184 29.448 29.448 29.448 16.264 0 29.448-13.184 29.448-29.448 0-16.264-13.184-29.448-29.448-29.448-16.264 0-29.448 13.184-29.448 29.448z" opacity=".2"/>
    <circle cx="75.49" cy="170.49" r="7.49" fill="#FFBA49"/>
    <path stroke="#000" stroke-dasharray="5 4" stroke-width="2" d="M33.502 216.476c54.384-32.313 41.291-78.895 78.119-121.738 67.349-78.347 200.166 9.525 217.847-150.221L-139.156-8.234l22.011 218.305c3.069 30.446 96.262 38.717 150.647 6.405z" opacity=".1"/>
    <path fill="#1E524E" d="M138.564 83.973c-2.027 10.543 4.962 20.991 15.678 20.35 13.079-.783 25.859-4.86 37.096-11.996 16.758-10.643 28.819-27.284 33.716-46.522 4.898-19.238 2.264-39.62-7.365-56.98-9.629-17.361-25.525-30.388-44.439-36.42-18.913-6.03-39.416-4.61-57.317 3.971-17.901 8.582-31.849 23.676-38.992 42.198-7.144 18.522-6.943 39.073.561 57.452 5.032 12.324 13.092 23.048 23.303 31.257 8.367 6.726 20.114 2.252 24.565-7.517 4.45-9.77-.488-21.157-6.94-29.737-1.996-2.654-3.661-5.573-4.936-8.697-3.758-9.203-3.858-19.494-.281-28.77 3.577-9.274 10.561-16.833 19.525-21.13 8.964-4.297 19.231-5.008 28.702-1.988 9.47 3.02 17.43 9.544 22.252 18.237 4.821 8.693 6.141 18.9 3.688 28.533-2.452 9.633-8.492 17.966-16.883 23.295-2.849 1.81-5.896 3.226-9.06 4.234-10.228 3.261-20.847 9.688-22.873 20.23z" opacity=".2"/>
    <path fill="#2E4057" d="M40.775 63.119c-3.476-2.616-7.743-3.963-12.091-3.816-4.348.147-8.514 1.779-11.805 4.624-3.292 2.845-5.509 6.731-6.283 11.012-.774 4.28-.059 8.698 2.027 12.515l7.897-4.315c-1.1-2.013-1.477-4.341-1.068-6.598.408-2.257 1.577-4.306 3.312-5.806 1.735-1.5 3.932-2.36 6.224-2.438 2.292-.077 4.542.633 6.374 2.012l5.413-7.19z"/>
    <path fill="#40C9A2" d="M150.617 38.414c1.856-.573 3.541-1.595 4.907-2.974 1.366-1.38 2.371-3.076 2.925-4.937.555-1.862.641-3.83.253-5.733-.389-1.903-1.24-3.68-2.48-5.175-1.24-1.495-2.829-2.661-4.626-3.395-1.798-.734-3.749-1.013-5.681-.813-1.931.2-3.784.873-5.393 1.96s-2.925 2.554-3.832 4.272l6.926 3.657c.305-.579.748-1.073 1.29-1.439.542-.366 1.166-.593 1.816-.66.651-.067 1.308.027 1.913.274.605.247 1.141.64 1.558 1.143.417.503.704 1.102.835 1.743.131.64.102 1.303-.085 1.93s-.525 1.198-.985 1.662c-.46.465-1.028.81-1.652 1.002l2.311 7.483zM51.915 111.323c.48 1.232 1.256 2.327 2.26 3.187 1.003.861 2.203 1.461 3.494 1.747 1.29.286 2.632.249 3.905-.108 1.273-.356 2.44-1.021 3.394-1.935.955-.915 1.67-2.05 2.08-3.307.412-1.257.506-2.595.277-3.897-.23-1.302-.778-2.527-1.594-3.567-.816-1.04-1.877-1.862-3.087-2.395l-2.147 4.881c.408.18.765.457 1.04.807.275.35.459.763.536 1.201.078.438.046.889-.093 1.312-.138.423-.379.806-.7 1.114-.322.308-.714.531-1.143.651-.429.12-.88.133-1.315.037-.434-.097-.839-.299-1.177-.588-.338-.29-.599-.659-.76-1.074l-4.97 1.934z"/>
    <circle cx="83" cy="68" r="5" fill="#FFBA49"/>
</svg>
