<svg xmlns="http://www.w3.org/2000/svg" width="100%" height="100%" fill="none" viewBox="0 0 168 234">
    <path fill="#40C9A2" d="M87.783 205.813c-1.773.792-3.324 2.008-4.515 3.542-1.19 1.534-1.985 3.338-2.312 5.253-.327 1.914-.177 3.879.437 5.721.614 1.843 1.673 3.505 3.083 4.84 1.41 1.336 3.127 2.303 5 2.816 1.873.513 3.844.556 5.737.126 1.894-.431 3.652-1.321 5.119-2.594 1.467-1.272 2.598-2.886 3.292-4.7l-7.314-2.799c-.234.61-.615 1.154-1.109 1.582-.494.429-1.086.729-1.724.873-.637.145-1.3.131-1.931-.042-.631-.173-1.21-.498-1.684-.948-.475-.45-.831-1.009-1.038-1.63-.207-.62-.257-1.282-.147-1.926.11-.645.377-1.252.778-1.769.401-.517.923-.926 1.52-1.193l-3.192-7.152z"/>
    <circle cx="11" cy="205" r="5" fill="#FFBA49"/>
    <path fill="#1E524E" d="M217 183.5c0 30.1-24.4 54.5-54.5 54.5S108 213.6 108 183.5s24.4-54.5 54.5-54.5 54.5 24.4 54.5 54.5zm-83.948 0c0 16.264 13.184 29.448 29.448 29.448 16.264 0 29.448-13.184 29.448-29.448 0-16.264-13.184-29.448-29.448-29.448-16.264 0-29.448 13.184-29.448 29.448z" opacity=".2"/>
    <path stroke="#000" stroke-dasharray="5 4" stroke-width="2" d="M191.948-21.032C135.119 6.758 144.387 54.25 104.203 93.96c-73.487 72.621-198.732-25.744-229.324 132.04l470.914-9.048-4.215-219.37c-.588-30.596-92.802-46.406-149.63-18.615z" opacity=".1"/>
    <path fill="#2E4057" d="M42.743 190.197c3.191-3.773 4.993-8.524 5.107-13.464.114-4.94-1.468-9.77-4.482-13.685-3.014-3.916-7.279-6.681-12.083-7.835-4.805-1.153-9.86-.627-14.323 1.492l4.384 9.234c2.354-1.118 5.019-1.395 7.552-.787 2.533.609 4.781 2.066 6.37 4.131 1.59 2.064 2.423 4.61 2.363 7.215-.06 2.604-1.01 5.109-2.692 7.098l7.804 6.601zM160.708 37.273c1.131-4.201.788-8.663-.971-12.642-1.759-3.979-4.827-7.235-8.695-9.227-3.868-1.992-8.301-2.598-12.561-1.72-4.261.88-8.092 3.192-10.855 6.551l6.95 5.717c1.457-1.771 3.477-2.99 5.723-3.454 2.246-.463 4.584-.143 6.623.907 2.039 1.05 3.657 2.767 4.584 4.865.927 2.098 1.108 4.45.512 6.665l8.69 2.338z"/>
    <path fill="#1E524E" d="M83.07-5.273c13.425-7.767 18.215-25.284 7.372-36.374-13.233-13.535-29.78-23.625-48.206-29.136-27.478-8.218-57.058-5.632-82.692 7.232C-66.091-50.688-85.844-28.52-95.68-1.578c-9.834 26.942-9.008 56.623 2.31 82.976 11.32 26.353 32.277 47.387 58.587 58.804 26.31 11.417 55.988 12.354 82.967 2.619 26.978-9.735 49.22-29.406 62.178-54.992 8.689-17.157 12.764-36.105 12.06-55.021-.578-15.5-16.58-24.086-31.456-19.697C76.09 17.5 68.334 33.668 65.076 48.83c-1.007 4.692-2.617 9.271-4.82 13.621-6.49 12.812-17.627 22.663-31.136 27.537-13.51 4.875-28.37 4.406-41.545-1.311s-23.67-16.25-29.337-29.446c-5.668-13.196-6.082-28.059-1.157-41.55C-37.994 4.19-28.103-6.91-15.266-13.351c12.836-6.441 27.648-7.737 41.408-3.621 4.671 1.397 9.101 3.382 13.197 5.88 13.24 8.079 30.306 13.586 43.73 5.819z" opacity=".2"/>
    <circle cx="151.49" cy="71.49" r="7.49" fill="#FFBA49"/>
    <circle cx="81" cy="108" r="5" fill="#FFBA49"/>
    <path fill="#40C9A2" d="M36.39 82.282c-.3-1.526-.972-2.955-1.956-4.16-.985-1.204-2.251-2.148-3.687-2.746-1.436-.598-2.998-.833-4.546-.684-1.549.15-3.037.678-4.332 1.54s-2.358 2.03-3.094 3.4c-.736 1.37-1.123 2.901-1.127 4.457-.003 1.556.378 3.088 1.108 4.462.73 1.373 1.789 2.545 3.08 3.412l3.497-5.21c-.435-.291-.79-.686-1.037-1.149-.246-.462-.374-.978-.373-1.502.001-.524.131-1.04.38-1.5.247-.462.605-.856 1.041-1.146.436-.29.937-.468 1.459-.518.521-.05 1.047.029 1.53.23.484.201.91.52 1.242.925.332.405.558.886.659 1.4l6.157-1.211zM122.458 114.683c1.928.232 3.884-.016 5.693-.72 1.81-.705 3.417-1.845 4.681-3.319 1.264-1.475 2.144-3.238 2.564-5.134.419-1.896.365-3.867-.159-5.737s-1.501-3.581-2.845-4.983c-1.343-1.403-3.012-2.452-4.858-3.055-1.846-.603-3.812-.742-5.724-.404-1.912.338-3.711 1.143-5.239 2.343l4.839 6.158c.514-.403 1.12-.674 1.764-.788.644-.114 1.306-.067 1.927.136.622.203 1.184.556 1.636 1.028.452.472.781 1.049.958 1.679.176.629.195 1.293.053 1.931-.141.639-.437 1.232-.863 1.729-.425.496-.967.88-1.576 1.117-.609.238-1.268.321-1.917.243l-.934 7.776zM129.422 133.431c-1.221.4-2.324 1.095-3.212 2.023-.888.928-1.533 2.06-1.879 3.297-.345 1.237-.381 2.541-.102 3.794.278 1.254.861 2.42 1.698 3.395.836.974 1.9 1.728 3.097 2.193 1.197.465 2.491.628 3.766.474 1.275-.154 2.492-.62 3.544-1.357s1.906-1.722 2.487-2.868l-4.622-2.34c-.195.385-.483.717-.837.965s-.764.405-1.193.457c-.43.052-.865-.003-1.268-.16-.403-.156-.762-.41-1.043-.738-.282-.328-.478-.721-.572-1.143-.094-.422-.082-.861.034-1.277.117-.417.334-.798.633-1.111.299-.312.671-.546 1.082-.681l-1.613-4.923z"/>
    <circle cx="16.49" cy="1.49" r="7.49" fill="#FFBA49"/>
    <path fill="#2E4057" d="M152.92 116.818c2.953 3.195 6.91 5.282 11.215 5.914 4.304.632 8.695-.23 12.441-2.442 3.746-2.211 6.622-5.64 8.148-9.713 1.526-4.074 1.611-8.548.24-12.677l-8.541 2.836c.723 2.177.678 4.536-.126 6.683-.805 2.148-2.321 3.956-4.296 5.122s-4.29 1.62-6.56 1.287c-2.269-.333-4.356-1.433-5.912-3.118l-6.609 6.108z"/>
</svg>
