<svg xmlns="http://www.w3.org/2000/svg" width="118" height="118" fill="none" viewBox="0 0 118 118">
    <g clip-path="url(#clip0)">
        <rect width="118" height="118" fill="#2F9C95" rx="10"/>
        <path fill="#1E524E" d="M171 59.5c0 30.1-24.4 54.5-54.5 54.5S62 89.6 62 59.5 86.4 5 116.5 5 171 29.4 171 59.5zm-83.948 0c0 16.264 13.184 29.448 29.448 29.448 16.264 0 29.448-13.184 29.448-29.448 0-16.264-13.184-29.448-29.448-29.448-16.264 0-29.448 13.184-29.448 29.448z" opacity=".2"/>
        <path stroke="#000" stroke-dasharray="5 4" stroke-width="2" d="M-38.755 173.897C18.596 147.203 10.243 99.542 51.183 60.61 126.05-10.586 249.382 90.167 283-67h-471v219.411c0 30.601 91.893 48.18 149.245 21.486z" opacity=".1"/>
        <circle cx="21.49" cy="102.49" r="7.49" fill="#FFBA49"/>
        <path fill="#2E4057" d="M8.749-5.018C5.478-2.151 3.287 1.75 2.542 6.037c-.745 4.286.001 8.698 2.113 12.501 2.113 3.803 5.464 6.768 9.496 8.401s8.502 1.836 12.666.574l-2.61-8.613c-2.195.666-4.552.559-6.678-.302-2.126-.861-3.893-2.424-5.006-4.43-1.114-2.004-1.507-4.33-1.114-6.59.392-2.26 1.547-4.317 3.272-5.829L8.749-5.018z"/>
        <path fill="#40C9A2" d="M104.255 110.413c-1.222-.396-2.522-.486-3.787-.26-1.264.226-2.453.76-3.462 1.555-1.009.795-1.805 1.827-2.32 3.003-.515 1.177-.732 2.463-.63 3.743.1 1.28.515 2.516 1.207 3.598.693 1.082 1.641 1.976 2.762 2.603 1.12.628 2.379.969 3.663.995 1.284.025 2.554-.267 3.699-.85l-2.352-4.616c-.385.197-.813.295-1.245.287-.433-.009-.856-.124-1.234-.335-.377-.212-.697-.513-.93-.877-.233-.364-.373-.78-.407-1.211-.033-.432.04-.865.213-1.261.173-.396.441-.743.781-1.011.34-.268.74-.448 1.166-.524.426-.076.864-.046 1.275.088l1.601-4.927zM37.982 54.53c.983.458 2.065.667 3.149.608 1.084-.06 2.136-.385 3.064-.948.928-.563 1.702-1.346 2.255-2.28.553-.934.867-1.99.915-3.074.047-1.085-.174-2.164-.643-3.142-.47-.98-1.173-1.827-2.048-2.469-.876-.642-1.896-1.058-2.97-1.21-1.075-.154-2.17-.04-3.19.33l1.497 4.114c.343-.125.712-.163 1.074-.111.362.051.705.191 1 .408.295.216.532.501.69.83.158.33.232.694.216 1.059-.016.365-.121.72-.308 1.035-.186.315-.447.578-.76.768-.312.19-.666.299-1.03.319-.366.02-.73-.05-1.061-.205l-1.85 3.968z"/>
        <circle cx="45.34" cy="9.34" r="4.34" fill="#FFBA49" opacity=".9"/>
    </g>
    <defs>
        <clipPath id="clip0">
            <rect width="118" height="118" fill="#fff" rx="10"/>
        </clipPath>
    </defs>
</svg>
