<svg xmlns="http://www.w3.org/2000/svg" width="33" height="32" fill="none" viewBox="0 0 33 32">
    <path fill="#607D8B" d="M11.9 16c-1.427-.947-3-1.693-4.707-2.147 1.707.454 3.28 1.2 4.707 2.147zm13.907-2.147c-1.72.454-3.32 1.214-4.76 2.187 1.44-.973 3.04-1.733 4.76-2.187z"/>
    <path fill="#fff" d="M21.153 12.84c-.24-3.72-1.746-7.347-4.573-10.173-2.853 2.853-4.427 6.48-4.733 10.173 1.706.907 3.28 2.08 4.653 3.507 1.373-1.414 2.947-2.587 4.653-3.507zm-8.666 3.533c-.187-.133-.4-.253-.6-.386.2.146.413.253.6.386zm8.56-.333c-.174.12-.36.213-.534.347.174-.134.36-.227.534-.347zM16.5 20.6c-2.867-4.373-7.76-7.267-13.333-7.267 0 7.094 4.48 13.094 10.706 15.32.84.307 1.72.534 2.627.68.907-.16 1.773-.386 2.627-.68 6.226-2.226 10.706-8.226 10.706-15.32-5.573 0-10.466 2.894-13.333 7.267z"/>
</svg>
