<svg xmlns="http://www.w3.org/2000/svg" width="118" height="118" fill="none" viewBox="0 0 118 118">
    <g clip-path="url(#clip0)">
        <rect width="118" height="118" fill="#2F9C95" rx="10"/>
        <path fill="#1E524E" d="M59-.5C59 29.6 34.6 54 4.5 54S-50 29.6-50-.5-25.6-55 4.5-55 59-30.6 59-.5zm-83.948 0c0 16.264 13.184 29.448 29.448 29.448 16.264 0 29.448-13.184 29.448-29.448 0-16.264-13.184-29.448-29.448-29.448-16.264 0-29.448 13.184-29.448 29.448z" opacity=".2"/>
        <path stroke="#000" stroke-dasharray="5 4" stroke-width="2" d="M172.97 131.013C137.875 78.381 92.036 93.876 47.338 59.324-34.403-3.863 46.45-141.066-114-150.423l71.534 465.536L174.4 281.789c30.246-4.647 33.664-98.144-1.43-150.776z" opacity=".1"/>
        <circle cx="89.49" cy="102.49" r="7.49" fill="#FFBA49"/>
        <circle cx="100.34" cy="16.34" r="4.34" fill="#FFBA49" opacity=".9"/>
        <path fill="#40C9A2" d="M103.766 43.9c-1.113.642-2.05 1.548-2.729 2.639-.679 1.09-1.078 2.33-1.163 3.612-.085 1.282.148 2.564.677 3.735.529 1.17 1.339 2.191 2.358 2.974 1.018.782 2.214 1.302 3.481 1.512 1.267.21 2.566.104 3.783-.308 1.216-.412 2.312-1.118 3.191-2.055.878-.937 1.512-2.076 1.845-3.316l-5.002-1.344c-.113.418-.326.801-.622 1.117-.296.315-.665.553-1.074.692-.41.138-.848.174-1.274.103-.427-.07-.829-.245-1.172-.509-.343-.263-.616-.607-.794-1.001-.178-.394-.257-.826-.228-1.258.028-.431.163-.85.391-1.216.229-.367.545-.672.919-.889l-2.587-4.487zM26.982 29.753c.983.458 2.065.667 3.149.608 1.084-.06 2.136-.385 3.064-.948.928-.563 1.702-1.346 2.255-2.28.553-.934.867-1.99.915-3.074.047-1.085-.174-2.164-.643-3.143-.47-.978-1.173-1.826-2.048-2.468-.876-.641-1.896-1.057-2.97-1.21-1.075-.154-2.17-.04-3.19.33l1.497 4.114c.343-.124.712-.163 1.074-.111.362.051.705.192 1 .408.295.216.532.501.69.83.158.33.232.694.216 1.059-.016.365-.122.72-.308 1.035-.186.315-.447.578-.76.768-.312.19-.666.3-1.03.319-.366.02-.73-.05-1.061-.205l-1.85 3.968z"/>
        <path fill="#2E4057" d="M54.562 117.461c-1.06-4.219-3.534-7.948-7.01-10.565-3.474-2.617-7.741-3.965-12.089-3.819-4.348.145-8.515 1.776-11.807 4.62-3.291 2.844-5.51 6.73-6.285 11.011l8.855 1.604c.409-2.257 1.578-4.305 3.314-5.805 1.736-1.499 3.932-2.359 6.225-2.436 2.292-.077 4.541.634 6.373 2.014 1.833 1.379 3.137 3.345 3.696 5.57l8.728-2.194z"/>
    </g>
    <defs>
        <clipPath id="clip0">
            <rect width="118" height="118" fill="#fff" rx="10"/>
        </clipPath>
    </defs>
</svg>
