<svg xmlns="http://www.w3.org/2000/svg" width="32" height="32" fill="none" viewBox="0 0 32 32">
    <path fill="#fff" d="M21.333 14.667c2.214 0 3.987-1.787 3.987-4 0-2.214-1.773-4-3.987-4-2.213 0-4 1.786-4 4 0 2.213 1.787 4 4 4zm-10.666 0c2.213 0 3.986-1.787 3.986-4 0-2.214-1.773-4-3.986-4-2.214 0-4 1.786-4 4 0 2.213 1.786 4 4 4zm0 2.666c-3.107 0-9.334 1.56-9.334 4.667v3.333H20V22c0-3.107-6.227-4.667-9.333-4.667zm10.666 0c-.386 0-.826.027-1.293.067 1.547 1.12 2.627 2.627 2.627 4.6v3.333h8V22c0-3.107-6.227-4.667-9.334-4.667z"/>
</svg>
