<svg width="16" height="16" viewBox="0 0 16 16" fill="none" xmlns="http://www.w3.org/2000/svg">
<path d="M10.6666 7.33325C11.7733 7.33325 12.66 6.43992 12.66 5.33325C12.66 4.22659 11.7733 3.33325 10.6666 3.33325C9.55996 3.33325 8.66663 4.22659 8.66663 5.33325C8.66663 6.43992 9.55996 7.33325 10.6666 7.33325ZM5.33329 7.33325C6.43996 7.33325 7.32663 6.43992 7.32663 5.33325C7.32663 4.22659 6.43996 3.33325 5.33329 3.33325C4.22663 3.33325 3.33329 4.22659 3.33329 5.33325C3.33329 6.43992 4.22663 7.33325 5.33329 7.33325ZM5.33329 8.66659C3.77996 8.66659 0.666626 9.44659 0.666626 10.9999V12.6666H9.99996V10.9999C9.99996 9.44659 6.88663 8.66659 5.33329 8.66659ZM10.6666 8.66659C10.4733 8.66659 10.2533 8.67992 10.02 8.69992C10.7933 9.25992 11.3333 10.0133 11.3333 10.9999V12.6666H15.3333V10.9999C15.3333 9.44659 12.22 8.66659 10.6666 8.66659Z" fill="#FFBA49"/>
</svg>
