<svg xmlns="http://www.w3.org/2000/svg" width="181" height="118" fill="none" viewBox="0 0 181 118">
    <path stroke="#000" stroke-dasharray="5 4" stroke-width="2" d="M102.692 46.986c-87.163 27.798-72.938 75.289-134.57 115.005-112.707 72.63-304.839-25.72-351.733 132.068l722.331-9.106-6.507-219.37c-.908-30.595-142.357-46.394-229.521-18.596z" opacity=".1"/>
    <ellipse cx="157.209" cy=".49" fill="#1F706A" rx="11.489" ry="11.49"/>
    <path fill="#1E524E" d="M75 105.5c0 30.1-24.4 54.5-54.5 54.5S-34 135.6-34 105.5-9.6 51 20.5 51 75 75.4 75 105.5zm-83.948 0c0 16.264 13.184 29.448 29.448 29.448 16.264 0 29.448-13.184 29.448-29.448 0-16.264-13.184-29.448-29.448-29.448-16.264 0-29.448 13.184-29.448 29.448z" opacity=".2"/>
    <path fill="#1E524E" d="M75 105.5c0 30.1-24.4 54.5-54.5 54.5S-34 135.6-34 105.5-9.6 51 20.5 51 75 75.4 75 105.5zm-83.948 0c0 16.264 13.184 29.448 29.448 29.448 16.264 0 29.448-13.184 29.448-29.448 0-16.264-13.184-29.448-29.448-29.448-16.264 0-29.448 13.184-29.448 29.448z" opacity=".2"/>
</svg>
