<svg xmlns="http://www.w3.org/2000/svg" width="181" height="118" fill="none" viewBox="0 0 181 118">
    <path fill="#1E5854" d="M171 59.5c0 30.1-24.4 54.5-54.5 54.5S62 89.6 62 59.5 86.4 5 116.5 5 171 29.4 171 59.5zm-83.948 0c0 16.264 13.184 29.448 29.448 29.448 16.264 0 29.448-13.184 29.448-29.448 0-16.264-13.184-29.448-29.448-29.448-16.264 0-29.448 13.184-29.448 29.448z" opacity=".2"/>
    <path stroke="#000" stroke-dasharray="5 4" stroke-width="2" d="M-59.447 173.897C28.525 147.203 15.711 99.542 78.51 60.61 193.349-10.586 382.528 90.167 434.093-67h-722.466v219.411c0 30.601 140.955 48.18 228.926 21.486z" opacity=".1"/>
    <ellipse cx="20.692" cy="118.49" fill="#1F706A" rx="11.489" ry="11.49"/>
</svg>
