<svg width="411" height="259" viewBox="0 0 411 259" fill="none" xmlns="http://www.w3.org/2000/svg">
<g clip-path="url(#clip0)">
<path d="M0 0H411V229C411 245.569 397.569 259 381 259H30C13.4315 259 0 245.569 0 229V0Z" fill="#2F9C95"/>
<path d="M287.48 124.706C286.159 124.278 284.752 124.181 283.385 124.425C282.017 124.669 280.731 125.245 279.64 126.103C278.549 126.961 277.687 128.075 277.13 129.344C276.574 130.614 276.34 132.002 276.448 133.383C276.557 134.765 277.006 136.099 277.755 137.266C278.504 138.433 279.53 139.398 280.742 140.076C281.954 140.753 283.315 141.121 284.704 141.149C286.093 141.176 287.467 140.861 288.704 140.232L286.161 135.251C285.744 135.463 285.281 135.569 284.814 135.559C284.346 135.55 283.888 135.426 283.48 135.198C283.072 134.97 282.726 134.645 282.474 134.252C282.222 133.859 282.071 133.41 282.034 132.945C281.997 132.479 282.076 132.012 282.264 131.585C282.451 131.157 282.741 130.782 283.109 130.493C283.476 130.204 283.909 130.01 284.37 129.928C284.83 129.846 285.304 129.879 285.749 130.023L287.48 124.706Z" fill="#40C9A2"/>
<path d="M286.378 -3.49119C285.588 -2.00884 285.177 -0.354988 285.18 1.32387C285.184 3.00274 285.603 4.65479 286.399 6.13368C287.195 7.61258 288.345 8.87268 289.746 9.80236C291.147 10.732 292.756 11.3026 294.431 11.4635C296.106 11.6244 297.795 11.3707 299.348 10.7249C300.901 10.079 302.271 9.06094 303.335 7.76084C304.4 6.46074 305.127 4.91873 305.451 3.27141C305.776 1.6241 305.689 -0.0776886 305.197 -1.6832L298.707 0.29654C298.872 0.837158 298.902 1.41019 298.793 1.96489C298.683 2.51959 298.438 3.03882 298.08 3.4766C297.722 3.91438 297.26 4.25719 296.737 4.47467C296.214 4.69215 295.646 4.77758 295.082 4.72339C294.518 4.66921 293.976 4.47709 293.504 4.16404C293.032 3.85099 292.645 3.42668 292.377 2.92869C292.109 2.43071 291.968 1.87442 291.967 1.3091C291.965 0.743784 292.104 0.186886 292.37 -0.312262L286.378 -3.49119Z" fill="#40C9A2"/>
<path d="M355.285 208.828C357.226 210.038 359.437 210.752 361.721 210.907C364.005 211.061 366.292 210.651 368.379 209.713C370.466 208.775 372.289 207.338 373.686 205.529C375.084 203.72 376.013 201.595 376.391 199.342C376.768 197.089 376.584 194.778 375.853 192.614C375.121 190.45 373.867 188.498 372.199 186.933C370.532 185.368 368.503 184.238 366.294 183.642C364.084 183.046 361.761 183.003 359.53 183.517L361.607 192.493C362.358 192.32 363.14 192.334 363.885 192.535C364.629 192.736 365.312 193.116 365.873 193.643C366.435 194.17 366.857 194.827 367.103 195.556C367.35 196.285 367.412 197.063 367.285 197.822C367.157 198.58 366.845 199.296 366.374 199.905C365.903 200.514 365.29 200.998 364.587 201.314C363.884 201.63 363.114 201.768 362.345 201.716C361.576 201.664 360.831 201.423 360.178 201.016L355.285 208.828Z" fill="#40C9A2"/>
<path opacity="0.1" d="M56.5068 238.384C118.537 209.577 109.502 158.143 153.782 116.129C234.757 39.2971 368.151 148.026 404.511 -21.5833H-104.913V215.198C-104.913 248.221 -5.52354 267.192 56.5068 238.384Z" stroke="black" stroke-width="2" stroke-dasharray="5 4"/>
<path d="M60.1593 -11.6313C56.8333 -15.8789 52.1495 -18.8616 46.8877 -20.0827C41.6258 -21.3039 36.1035 -20.6899 31.2402 -18.3429C26.3769 -15.9959 22.466 -12.0576 20.1588 -7.18369C17.8515 -2.30976 17.2871 3.20567 18.5595 8.44427L29.4206 5.81796C28.7497 3.05605 29.0473 0.148188 30.2637 -2.42146C31.4802 -4.9911 33.5421 -7.06747 36.1061 -8.30485C38.6702 -9.54224 41.5817 -9.86596 44.3558 -9.22213C47.13 -8.57829 49.5994 -7.00575 51.3529 -4.76633L60.1593 -11.6313Z" fill="#2E4057"/>
<path d="M148.973 29.2122C152.309 26.8411 156.364 25.6913 160.451 25.9569C164.539 26.2226 168.409 27.8874 171.409 30.6702L165.682 36.817C164.1 35.3499 162.06 34.4721 159.905 34.3321C157.75 34.192 155.612 34.7982 153.853 36.0483L148.973 29.2122Z" fill="#2E4057"/>
<path d="M288.859 27.4547C285.312 28.0787 282.086 29.896 279.719 32.6042C277.352 35.3124 275.986 38.7479 275.848 42.3388C275.711 45.9297 276.81 49.4592 278.963 52.3398C281.116 55.2203 284.194 57.278 287.682 58.1703L289.532 50.9694C287.693 50.499 286.071 49.4141 284.935 47.8954C283.8 46.3767 283.22 44.5159 283.293 42.6227C283.366 40.7295 284.086 38.9182 285.334 37.4904C286.582 36.0626 288.283 35.1044 290.153 34.7754L288.859 27.4547Z" fill="#2E4057"/>
<path d="M-6.91474 153.641C-1.57378 153.827 3.66992 152.182 7.94329 148.98C12.2167 145.778 15.2618 141.212 16.5717 136.042C17.8817 130.872 17.3773 125.411 15.1427 120.567C12.9081 115.724 9.07799 111.79 4.29016 109.421L-0.621439 119.303C1.90281 120.552 3.92212 122.626 5.10027 125.18C6.27842 127.733 6.54431 130.613 5.85369 133.338C5.16306 136.064 3.55758 138.471 1.30457 140.159C-0.948444 141.848 -3.71304 142.715 -6.52891 142.617L-6.91474 153.641Z" fill="#2E4057"/>
<path d="M110.734 141.769C114.999 143.753 119.816 144.22 124.383 143.092C128.95 141.964 132.993 139.308 135.837 135.568C138.681 131.828 140.155 127.229 140.014 122.536C139.873 117.844 138.125 113.341 135.062 109.777L127.674 116.101C129.289 117.979 130.21 120.353 130.285 122.827C130.359 125.301 129.582 127.726 128.082 129.698C126.583 131.67 124.452 133.07 122.044 133.665C119.636 134.26 117.096 134.013 114.848 132.967L110.734 141.769Z" fill="#2E4057"/>
<path d="M291.225 156.8C288.814 152.634 285.046 149.417 280.547 147.686C276.049 145.955 271.092 145.813 266.502 147.284C261.911 148.756 257.965 151.752 255.319 155.773C252.673 159.795 251.488 164.6 251.96 169.387L261.886 168.412C261.637 165.888 262.262 163.355 263.657 161.235C265.052 159.114 267.132 157.535 269.552 156.759C271.973 155.983 274.586 156.058 276.958 156.971C279.329 157.884 281.316 159.579 282.587 161.776L291.225 156.8Z" fill="#2E4057"/>
<path d="M-8.79572 288.579C-4.84806 288.441 -1.06672 286.958 1.91869 284.378C4.90411 281.797 6.91345 278.274 7.61217 274.394C8.31089 270.515 7.65681 266.514 5.75885 263.058C3.86089 259.602 0.833576 256.898 -2.81905 255.398L-5.92986 262.937C-4.00412 263.728 -2.40805 265.153 -1.4074 266.975C-0.406753 268.798 -0.0619098 270.907 -0.430289 272.952C-0.798669 274.997 -1.85804 276.855 -3.43202 278.216C-5.006 279.576 -6.9996 280.358 -9.0809 280.431L-8.79572 288.579Z" fill="#2E4057"/>
<path d="M189.488 289.149C194.51 287.325 198.754 283.84 201.514 279.274C204.274 274.708 205.383 269.336 204.657 264.053C203.93 258.771 201.412 253.895 197.522 250.24C193.631 246.584 188.603 244.368 183.275 243.961L182.431 254.959C185.24 255.174 187.891 256.342 189.942 258.27C191.994 260.197 193.321 262.767 193.704 265.553C194.087 268.338 193.502 271.17 192.047 273.577C190.592 275.985 188.354 277.822 185.707 278.784L189.488 289.149Z" fill="#2E4057"/>
<path d="M355.183 262.502C355.183 258.967 353.969 255.538 351.744 252.787C349.518 250.035 346.415 248.128 342.952 247.381C339.488 246.635 335.873 247.095 332.708 248.684C329.543 250.274 327.019 252.897 325.556 256.117L332.233 259.136C333.004 257.438 334.334 256.055 336.003 255.217C337.672 254.379 339.578 254.137 341.404 254.53C343.23 254.924 344.866 255.93 346.039 257.38C347.213 258.831 347.853 260.638 347.853 262.502H355.183Z" fill="#2E4057"/>
<ellipse opacity="0.96" cx="410.124" cy="84.38" rx="8.85809" ry="8.83838" fill="#FFBA49"/>
<ellipse cx="60.017" cy="120.316" rx="8.10102" ry="8.08295" fill="#FFBA49"/>
<ellipse cx="199.54" cy="1.60795" rx="8.10101" ry="8.08296" fill="#FFBA49"/>
<ellipse cx="317.433" cy="83.6246" rx="8.10098" ry="8.08296" fill="#FFBA49"/>
<ellipse opacity="0.9" cx="163.686" cy="258.288" rx="4.69406" ry="4.68357" fill="#FFBA49"/>
<ellipse cx="260.109" cy="233.629" rx="8.10102" ry="8.08295" fill="#FFBA49"/>
<ellipse cx="109.24" cy="219.071" rx="7.57106" ry="7.55417" fill="#FFBA49"/>
<ellipse cx="161.156" cy="175.904" rx="7.57106" ry="7.55417" fill="#FFBA49"/>
<path opacity="0.2" d="M249.167 158.479C243.588 154.99 241.819 147.503 246.586 142.97C249.964 139.758 253.812 137.042 258.017 134.925C265.791 131.011 274.489 129.291 283.172 129.953C291.854 130.614 300.19 133.632 307.278 138.678C314.366 143.725 319.937 150.609 323.387 158.587C326.837 166.564 328.036 175.33 326.855 183.938C325.673 192.546 322.155 200.668 316.681 207.425C311.207 214.182 303.986 219.318 295.799 222.276C291.371 223.877 286.751 224.807 282.09 225.056C275.515 225.408 271.269 218.987 272.552 212.543C273.835 206.099 280.372 202.206 286.658 200.25C287 200.143 287.341 200.029 287.679 199.906C291.779 198.425 295.395 195.853 298.136 192.47C300.877 189.086 302.638 185.019 303.23 180.709C303.822 176.398 303.222 172.008 301.494 168.014C299.766 164.019 296.977 160.572 293.427 158.045C289.878 155.518 285.704 154.007 281.356 153.676C277.008 153.344 272.653 154.205 268.76 156.165C268.439 156.327 268.122 156.496 267.809 156.671C262.07 159.893 254.747 161.968 249.167 158.479Z" fill="#1E524E"/>
<path opacity="0.2" d="M476.976 73.9229C476.976 106.405 450.585 132.738 418.03 132.738C385.475 132.738 359.084 106.405 359.084 73.9229C359.084 41.4405 385.475 15.1083 418.03 15.1083C450.585 15.1083 476.976 41.4405 476.976 73.9229ZM386.18 73.9229C386.18 91.4741 400.44 105.702 418.03 105.702C435.62 105.702 449.88 91.4741 449.88 73.9229C449.88 56.3718 435.62 42.1438 418.03 42.1438C400.44 42.1438 386.18 56.3718 386.18 73.9229Z" fill="#1E524E"/>
</g>
<defs>
<clipPath id="clip0">
<path d="M0 0H411V229C411 245.569 397.569 259 381 259H30C13.4315 259 0 245.569 0 229V0Z" fill="white"/>
</clipPath>
</defs>
</svg>
