<svg width="5" height="15" viewBox="0 0 4 12" fill="none" xmlns="http://www.w3.org/2000/svg">
<path d="M2.00001 3.33329C2.73334 3.33329 3.33334 2.73329 3.33334 1.99996C3.33334 1.26663 2.73334 0.666626 2.00001 0.666626C1.26667 0.666626 0.666672 1.26663 0.666672 1.99996C0.666672 2.73329 1.26667 3.33329 2.00001 3.33329ZM2.00001 4.66663C1.26667 4.66663 0.666672 5.26663 0.666672 5.99996C0.666672 6.73329 1.26667 7.33329 2.00001 7.33329C2.73334 7.33329 3.33334 6.73329 3.33334 5.99996C3.33334 5.26663 2.73334 4.66663 2.00001 4.66663ZM2.00001 8.66663C1.26667 8.66663 0.666672 9.26663 0.666672 9.99996C0.666672 10.7333 1.26667 11.3333 2.00001 11.3333C2.73334 11.3333 3.33334 10.7333 3.33334 9.99996C3.33334 9.26663 2.73334 8.66663 2.00001 8.66663Z" fill="#2F9C95"/>
</svg>
