<svg xmlns="http://www.w3.org/2000/svg" width="411" height="784" fill="none" viewBox="0 0 411 784">
    <path stroke="#000" stroke-dasharray="8 8" stroke-width="8" d="M526.34 634.155c-117.476-68.079-191.017 5.21-309.831-18.952C-.769 571.017 24.733 230.183-293 364.258l579.253 828.602 385.85-269.733c53.813-37.619-28.287-220.892-145.763-288.972z" opacity=".1"/>
    <path fill="#ABB6B5" d="M513.517 849.376c13.915 17.494 39.744 20.356 54.581 3.637 33.013-37.2 54.908-83.316 62.421-132.624 9.551-62.685-4.864-125.797-40.296-176.434-35.433-50.636-89.209-84.975-150.335-95.995-61.127-11.02-124.988 2.109-178.529 36.705-53.542 34.596-92.721 88.045-109.528 149.422-16.808 61.377-9.975 126.048 19.101 180.792 29.077 54.743 78.202 95.427 137.333 113.734 46.987 14.547 97.474 14.092 144.827-.807 20.618-6.487 28.848-30.069 19.889-49.739l-17.229-37.828c-9.356-20.541-34.002-28.522-56.384-25.603-17.176 2.24-34.647.839-51.245-4.299-29.61-9.167-54.209-29.54-68.769-56.952-14.56-27.413-17.981-59.797-9.565-90.531 8.417-30.735 28.035-57.499 54.846-74.823 26.811-17.324 58.789-23.898 89.398-18.38 30.609 5.519 57.537 22.713 75.28 48.07 17.742 25.356 24.96 56.959 20.178 88.348-2.804 18.404-9.609 35.919-19.738 51.36-11.975 18.253-15.273 42.87-1.683 59.955l25.447 31.992zM80 101c0 55.781-45.22 101-101 101s-101-45.219-101-101C-122 45.22-76.78 0-21 0S80 45.22 80 101zm-155.573 0c0 30.14 24.433 54.573 54.573 54.573S33.573 131.14 33.573 101 9.14 46.427-21 46.427-75.573 70.86-75.573 101z" opacity=".2"/>
    <circle cx="345" cy="44" r="12" fill="#FFBA49"/>
    <circle cx="80" cy="599" r="18" fill="#FFBA49"/>
    <circle cx="349.5" cy="703.5" r="11.5" fill="#FFBA49"/>
</svg>
